<?xml version="1.0" standalone="no"?>
<!DOCTYPE svg PUBLIC "-//W3C//DTD SVG 20010904//EN" "http://www.w3.org/TR/2001/REC-SVG-20010904/DTD/svg10.dtd">
<svg xmlns="http://www.w3.org/2000/svg" version="1.0" width="256.000000pt" height="256.000000pt" viewBox="0 0 256.000000 256.000000" preserveAspectRatio="xMidYMid meet">
<metadata>
Created by potrace 1.16, written by Peter Selinger 2001-2019
<meta name="Producer" content="Online-Convert"/></metadata>
<g transform="translate(0.000000,256.000000) scale(0.100000,-0.100000)" fill="#000000" stroke="none">
<path d="M1219 2190 c-9 -14 -29 -45 -45 -70 l-27 -45 2 -204 c1 -112 5 -209 8 -217 6 -15 72 -59 79 -52 2 3 3 142 2 309 -3 286 -4 302 -19 279z"/>
<path d="M1320 1906 c0 -168 3 -306 8 -306 4 0 23 11 43 24 l36 25 6 208 6 208 -40 67 c-22 37 -44 70 -49 73 -7 4 -10 -101 -10 -299z"/>
<path d="M460 2151 c0 -4 21 -16 48 -26 26 -9 72 -28 102 -41 337 -143 463 -194 481 -194 5 0 9 17 9 39 l0 38 -117 53 c-65 29 -154 70 -198 91 -75 34 -88 37 -202 43 -68 3 -123 2 -123 -3z"/>
<path d="M1930 2150 c-61 -4 -106 -12 -125 -23 -28 -16 -205 -99 -302 -142 -40 -17 -43 -22 -43 -57 0 -26 4 -38 14 -38 8 0 126 47 263 104 136 56 274 114 306 126 97 40 84 44 -113 30z"/>
<path d="M1635 1904 c-82 -35 -155 -62 -162 -60 -10 4 -13 -14 -13 -75 0 -44 4 -79 8 -77 53 22 372 206 372 215 0 24 -24 63 -39 63 -9 -1 -83 -30 -166 -66z"/>
<path d="M480 1943 c0 -17 25 -341 52 -684 l12 -156 155 -6 c86 -3 158 -4 160 -2 2 2 -1 26 -5 52 l-9 48 -55 5 -55 5 -7 45 c-3 25 -7 104 -7 177 l-1 132 73 -40 c39 -22 95 -51 123 -65 l51 -26 6 -210 c4 -116 7 -309 7 -428 0 -119 3 -219 6 -223 4 -3 50 29 103 73 146 119 143 116 137 159 -3 20 -5 57 -6 83 0 47 -1 48 -49 72 -172 88 -177 325 -8 425 l57 34 0 63 c0 63 -1 64 -37 88 -56 35 -690 396 -697 396 -3 0 -6 -8 -6 -17z"/>
<path d="M755 1925 c-11 -19 -17 -36 -15 -38 3 -2 82 -46 175 -97 94 -51 173 -95 178 -97 4 -2 7 27 7 65 0 64 -2 70 -22 75 -13 3 -85 32 -162 66 -76 34 -139 61 -141 61 -1 0 -10 -16 -20 -35z"/>
<path d="M1705 1752 l-360 -207 -3 -66 -3 -66 58 -34 c171 -101 162 -345 -16 -428 l-51 -24 0 -87 0 -88 119 -100 118 -100 7 97 c3 53 6 209 6 347 0 138 3 291 6 340 l7 89 117 63 c65 34 121 62 124 62 8 0 8 -77 -1 -228 l-6 -122 -57 0 -57 0 -7 -37 c-12 -77 -18 -73 107 -72 61 0 132 4 157 7 l45 7 2 50 c2 28 10 127 18 220 8 94 19 235 25 315 5 80 12 173 16 208 3 34 2 62 -3 61 -4 0 -170 -94 -368 -207z"/>
<path d="M1191 1372 c-6 -2 -8 -8 -5 -14 3 -5 0 -8 -8 -6 -7 2 -26 -7 -42 -20 -16 -12 -24 -22 -19 -22 6 0 16 7 23 15 7 8 17 15 22 15 5 0 -4 -11 -21 -25 -16 -14 -33 -35 -36 -46 -4 -11 -9 -18 -12 -16 -2 3 0 16 7 29 11 22 11 22 -5 3 -9 -12 -14 -29 -10 -42 4 -16 1 -21 -7 -18 -10 4 -13 -11 -13 -59 0 -50 3 -62 14 -58 11 4 13 0 8 -18 -10 -39 24 -88 68 -95 6 0 25 -8 44 -17 28 -13 31 -17 15 -20 -10 -2 18 -3 63 -3 47 0 77 3 70 8 -7 5 -3 7 11 4 14 -3 20 -1 15 6 -4 7 0 8 11 4 13 -5 17 -3 14 5 -3 7 8 23 23 36 16 13 29 19 29 14 0 -5 -10 -17 -22 -26 l-23 -17 22 11 c13 6 28 20 34 31 8 15 8 19 0 15 -14 -9 -14 -3 1 29 6 14 16 24 22 22 7 -3 11 19 11 64 0 46 -4 69 -12 69 -13 0 -28 38 -19 47 9 9 -13 42 -37 54 -19 9 -18 7 6 -15 38 -37 34 -44 -6 -9 -19 15 -32 34 -29 41 3 8 -2 10 -14 5 -12 -4 -15 -3 -10 5 4 7 4 12 -1 13 -24 3 -173 4 -182 1z m145 -44 c4 -5 14 -8 21 -8 25 0 75 -59 89 -106 11 -36 11 -56 2 -91 -11 -47 -65 -113 -91 -113 -9 0 -18 -4 -21 -9 -11 -17 -100 -8 -140 14 -70 39 -115 163 -76 209 7 9 9 16 5 16 -15 0 39 56 73 76 37 21 122 28 138 12z"/>
<path d="M1250 1241 c-9 -18 -14 -20 -26 -10 -8 6 -17 9 -21 5 -3 -3 -1 -6 7 -6 9 0 10 -3 1 -13 -6 -8 -8 -17 -4 -20 3 -4 1 -7 -7 -7 -9 0 -10 -3 -1 -13 8 -10 7 -17 -1 -25 -9 -9 -9 -12 2 -12 10 0 9 -4 -3 -18 -16 -17 -15 -18 12 -16 24 1 28 -1 24 -15 -4 -9 -3 -13 2 -9 4 4 14 3 22 -3 10 -9 13 -7 14 7 0 11 3 14 6 7 7 -18 30 -16 37 2 5 14 9 14 33 -2 27 -17 28 -17 13 2 -14 17 -13 18 2 12 12 -4 15 -2 11 9 -3 7 -10 14 -17 14 -6 0 -4 5 4 10 12 8 13 11 1 19 -10 6 -10 10 -1 16 9 6 9 10 -1 16 -11 7 -11 9 1 9 13 0 13 2 1 9 -13 8 -13 12 0 28 13 17 13 17 -14 0 -25 -16 -28 -16 -33 -2 -4 10 -13 14 -22 10 -8 -3 -19 0 -23 6 -4 8 -11 5 -19 -10z"/>
<path d="M531 943 c-6 -43 -20 -168 -31 -278 -11 -110 -25 -226 -31 -259 -6 -32 -8 -60 -6 -63 5 -5 146 53 159 66 4 3 12 78 18 166 12 190 15 205 38 205 9 0 31 7 47 16 17 9 53 24 80 34 l50 18 3 81 3 81 -138 0 c-76 0 -148 3 -159 6 -20 5 -22 0 -33 -73z"/>
<path d="M1843 1013 l-143 -4 0 -80 c0 -67 3 -80 18 -85 9 -3 45 -18 80 -35 34 -16 71 -29 82 -29 24 0 26 -14 40 -219 6 -85 11 -155 13 -156 20 -12 160 -65 163 -62 2 2 0 26 -5 54 -6 28 -17 117 -25 199 -36 346 -48 424 -65 422 -9 -1 -80 -4 -158 -5z"/>
</g>
</svg>
