<?xml version="1.0" standalone="no"?>
<!DOCTYPE svg PUBLIC "-//W3C//DTD SVG 20010904//EN" "http://www.w3.org/TR/2001/REC-SVG-20010904/DTD/svg10.dtd">
<svg xmlns="http://www.w3.org/2000/svg" version="1.0" width="200.000000pt" height="200.000000pt" viewBox="0 0 200.000000 200.000000" preserveAspectRatio="xMidYMid meet">
<metadata>
Created by potrace 1.16, written by Peter Selinger 2001-2019
<meta name="Producer" content="Online-Convert"/></metadata>
<g transform="translate(0.000000,200.000000) scale(0.100000,-0.100000)" fill="#000000" stroke="none">
<path d="M545 1476 c-57 -27 -119 -85 -145 -136 -45 -88 -50 -232 -11 -309 23 -45 72 -96 110 -115 85 -44 118 -48 356 -47 220 1 230 2 252 23 31 29 29 68 -3 99 -25 24 -29 24 -257 29 -255 6 -273 9 -308 66 -51 83 -24 199 56 239 36 18 64 20 270 23 192 3 240 1 293 -13 74 -20 162 -75 214 -133 l37 -41 19 27 c11 15 47 77 82 137 34 61 71 125 82 143 l20 32 -509 0 -508 0 -50 -24z"/>
<path d="M637 1230 c-26 -21 -34 -53 -19 -76 19 -29 56 -34 261 -34 184 0 215 -2 254 -19 58 -25 89 -70 95 -135 7 -92 -41 -160 -133 -185 -23 -6 -135 -11 -270 -11 l-230 0 -24 -43 c-13 -23 -33 -58 -45 -77 -13 -19 -50 -83 -83 -142 l-61 -106 75 -4 c59 -2 78 0 85 12 5 8 37 62 71 120 l62 105 228 3 c202 3 235 5 284 23 69 27 117 69 151 133 35 69 38 187 5 258 -29 63 -100 138 -160 168 -46 24 -56 25 -284 28 -227 3 -236 2 -262 -18z"/>
<path d="M1477 940 c-3 -14 -10 -52 -16 -85 -23 -128 -96 -224 -211 -278 -70 -34 -65 -33 -390 -40 l-125 -2 -36 -66 -36 -66 281 -6 c171 -4 310 -2 355 4 153 21 237 73 288 177 55 111 31 235 -66 343 -38 43 -39 44 -44 19z"/>
</g>
</svg>
