<?xml version="1.0" encoding="UTF-8"?>
<svg version="1.1" xmlns="http://www.w3.org/2000/svg" width="455" height="454">
<path d="M0 0 C3.38272725 0.02147453 6.76333171 0.00003926 10.14599609 -0.02539062 C28.63536486 -0.04937002 46.52946303 2.25011111 64.32177734 7.39648438 C65.22822998 7.65349121 66.13468262 7.91049805 67.06860352 8.17529297 C102.57643269 18.45494924 134.26818262 36.99047712 160.88427734 62.52148438 C161.50061035 63.10526855 162.11694336 63.68905273 162.75195312 64.29052734 C176.96694981 77.81142555 188.82497938 92.68328782 198.88427734 109.52148438 C199.27679688 110.17101074 199.66931641 110.82053711 200.07373047 111.48974609 C218.60177372 142.44567256 230.88826371 179.50491884 231.08740234 215.81445312 C231.09446198 216.67461533 231.10152161 217.53477753 231.10879517 218.42100525 C231.33762589 254.49273452 231.33762589 254.49273452 227.88427734 270.52148438 C227.68560059 271.46475586 227.48692383 272.40802734 227.28222656 273.37988281 C220.01748878 306.91195339 206.31154062 340.10620015 184.33203125 366.7578125 C183.18681333 368.15293126 182.05690495 369.56061608 180.93261719 370.97265625 C167.89932035 387.21348893 152.92803493 401.56843941 135.88427734 413.52148438 C134.71482732 414.37149832 133.54555061 415.22175077 132.37646484 416.07226562 C96.04576045 441.90959127 51.12033882 455.3763926 6.76855469 455.04296875 C3.38582744 455.02149422 0.00522298 455.04292949 -3.37744141 455.06835938 C-21.86681017 455.09233877 -39.76090834 452.79285764 -57.55322266 447.64648438 C-58.91290161 447.26097412 -58.91290161 447.26097412 -60.30004883 446.86767578 C-95.80787801 436.58801951 -127.49962794 418.05249163 -154.11572266 392.52148438 C-154.73205566 391.9377002 -155.34838867 391.35391602 -155.98339844 390.75244141 C-170.19839513 377.2315432 -182.05642469 362.35968093 -192.11572266 345.52148438 C-192.70450195 344.54719482 -192.70450195 344.54719482 -193.30517578 343.55322266 C-211.83321904 312.59729619 -224.11970903 275.53804991 -224.31884766 239.22851562 C-224.32590729 238.36835342 -224.33296692 237.50819122 -224.34024048 236.6219635 C-224.5690712 200.55023423 -224.5690712 200.55023423 -221.11572266 184.52148438 C-220.81770752 183.10657715 -220.81770752 183.10657715 -220.51367188 181.66308594 C-213.24893409 148.13101536 -199.54298594 114.9367686 -177.56347656 88.28515625 C-176.41825865 86.89003749 -175.28835026 85.48235267 -174.1640625 84.0703125 C-161.13076566 67.82947982 -146.15948024 53.47452934 -129.11572266 41.52148438 C-127.94627264 40.67147043 -126.77699592 39.82121798 -125.60791016 38.97070312 C-89.27720576 13.13337748 -44.35178413 -0.33342385 0 0 Z " fill="#FEFEFE" transform="translate(224.11572265625,-0.521484375)"/>
<path d="M0 0 C2.2875096 2.92975222 4.19978792 5.94000365 6.046875 9.1640625 C6.93149414 10.70320313 6.93149414 10.70320313 7.83398438 12.2734375 C8.46626953 13.37945312 9.09855469 14.48546875 9.75 15.625 C10.41964393 16.79182622 11.08957084 17.95849009 11.75976562 19.125 C13.15148769 21.54787512 14.54199104 23.97144346 15.93164062 26.39550781 C19.1097103 31.93690027 22.30577973 37.46790747 25.5 43 C26.75008468 45.16661781 28.0000844 47.33328464 29.25 49.5 C29.86875 50.5725 30.4875 51.645 31.125 52.75 C36.75 62.5 36.75 62.5 38.62524414 65.75048828 C39.87435518 67.91557071 41.12354129 70.08060982 42.37280273 72.24560547 C45.51202309 77.68615706 48.64990563 83.12747216 51.78515625 88.5703125 C57.80747329 99.02206199 63.84669337 109.46299548 69.9375 119.875 C75.35958699 129.14563931 80.70324012 138.45936699 86.02023315 147.79046631 C90.63484029 155.88707843 95.29084886 163.95788801 100 172 C105.05630923 180.63497557 110.04607122 189.30606319 115 198 C120.53985933 207.72124506 126.13374932 217.40894868 131.78344727 227.06689453 C136.02617273 234.32211726 140.23998054 241.59353319 144.4375 248.875 C145.05657227 249.94886963 145.67564453 251.02273926 146.31347656 252.12915039 C148.86322796 256.55350496 151.41182081 260.97852587 153.95996094 265.40380859 C155.9102045 268.79038672 157.86126012 272.17649584 159.8125 275.5625 C160.43318359 276.64063965 161.05386719 277.7187793 161.69335938 278.82958984 C164.4909676 283.68211147 167.30110853 288.52553671 170.1640625 293.33984375 C170.63739014 294.13640381 171.11071777 294.93296387 171.59838867 295.75366211 C172.4642552 297.2061394 173.33395536 298.65634118 174.20825195 300.10375977 C177 304.78197057 177 304.78197057 177 307 C60.51 307 -55.98 307 -176 307 C-174.60210955 303.50527389 -173.28283805 300.55006512 -171.453125 297.32421875 C-170.94547607 296.42678955 -170.43782715 295.52936035 -169.91479492 294.60473633 C-169.3654126 293.64204834 -168.81603027 292.67936035 -168.25 291.6875 C-167.67290283 290.67131592 -167.09580566 289.65513184 -166.5012207 288.6081543 C-161.87474475 280.48295661 -157.17017856 272.4043584 -152.44433594 264.33666992 C-147.91014007 256.58753226 -143.44435477 248.80082131 -139 241 C-133.46031101 231.27865901 -127.86624937 221.59104908 -122.21655273 211.93310547 C-116.06233258 201.40915375 -109.97630004 190.84619863 -103.89111328 180.28222656 C-100.76319852 174.85340058 -97.63141552 169.42680719 -94.5 164 C-93.24998121 161.83334417 -91.99998122 159.6666775 -90.75 157.5 C-38.25 66.5 -38.25 66.5 -36.37426758 63.2487793 C-35.1266526 61.08621417 -33.87909384 58.92361661 -32.6315918 56.76098633 C-29.47056551 51.28129629 -26.30850691 45.80220642 -23.14453125 40.32421875 C-15.39422564 26.90293385 -7.67413555 13.46499442 0 0 Z " fill="#000000" transform="translate(225,51)"/>
</svg>
